<svg xmlns="http://www.w3.org/2000/svg"  viewBox="0 0 64 64" width="64px" height="64px" baseProfile="basic"><radialGradient id="aSk6-mVKJI0JWpbOKIhf4a" cx="32.128" cy="732.594" r="36.865" gradientTransform="translate(0 -702)" gradientUnits="userSpaceOnUse"><stop offset="0" stop-color="#9ceeff"/><stop offset=".642" stop-color="#c5f5ff"/><stop offset="1" stop-color="#dcf9ff"/></radialGradient><path fill="url(#aSk6-mVKJI0JWpbOKIhf4a)" d="M59,39h-1.5c-0.828,0-1.5-0.671-1.5-1.5s0.672-1.5,1.5-1.5h1.349	c1.922,0,3.69-1.287,4.068-3.172C63.433,30.257,61.48,28,59,28h-3.5c-0.828,0-1.5-0.672-1.5-1.5l0,0c0-0.828,0.672-1.5,1.5-1.5	h3.285c2.499,0,4.776-1.738,5.154-4.209c0.472-3.078-1.866-5.733-4.841-5.79c-0.916-0.018-1.788-0.564-2.025-1.449	C56.715,12.21,57.716,11,59,11h0.5c2.148,0,3.844-1.935,3.44-4.158C62.633,5.156,61.055,4,59.341,4C50.603,4,13.398,4,4.66,4	c-1.714,0-3.293,1.156-3.6,2.842C0.656,9.065,2.352,11,4.5,11h0.406c0.921,0,1.795,0.575,2.025,1.467	C7.276,13.8,6.279,14.999,5.002,15c-1.959,0.002-3.821,1.082-4.57,2.892C-1.07,21.524,1.559,25,5,25h3.5c0.828,0,1.5,0.672,1.5,1.5	l0,0c0,0.828-0.672,1.5-1.5,1.5H5.151c-1.923,0-3.69,1.287-4.068,3.173C0.568,33.744,2.521,36,5,36h3.5c0.828,0,1.5,0.671,1.5,1.5	S9.328,39,8.5,39H5.215c-2.499,0-4.776,1.739-5.154,4.209c-0.472,3.078,1.866,5.732,4.84,5.79c0.917,0.018,1.789,0.564,2.025,1.45	C7.285,51.79,6.284,53,5,53H4.5c-2.148,0-3.844,1.935-3.44,4.158C1.367,58.844,2.945,60,4.659,60c8.738,0,45.943,0,54.681,0	c1.714,0,3.293-1.156,3.599-2.842C63.344,54.935,61.648,53,59.5,53h-0.406c-0.922,0-1.797-0.576-2.026-1.469	c-0.342-1.333,0.653-2.528,1.928-2.531c1.959-0.004,3.823-1.082,4.572-2.893C65.07,42.475,62.441,39,59,39z"/><linearGradient id="aSk6-mVKJI0JWpbOKIhf4b" x1="32.066" x2="32.066" y1="5.743" y2="58.39" gradientUnits="userSpaceOnUse"><stop offset="0" stop-color="#a4a4a4"/><stop offset=".619" stop-color="gray"/><stop offset="1" stop-color="#6f6f6f"/><stop offset="1" stop-color="#6f6f6f"/></linearGradient><path fill="url(#aSk6-mVKJI0JWpbOKIhf4b)" d="M56.528,32.066l1.537-1.649	c0.496-0.532,0.413-1.379-0.178-1.805l-1.829-1.318l1.186-1.918c0.383-0.619,0.136-1.433-0.526-1.736l-2.051-0.936l0.789-2.112	c0.255-0.682-0.147-1.432-0.855-1.599l-2.194-0.518l0.362-2.225c0.117-0.718-0.423-1.376-1.151-1.402l-2.253-0.079l-0.079-2.253	c-0.026-0.727-0.684-1.267-1.402-1.151l-2.225,0.362l-0.518-2.194c-0.167-0.708-0.918-1.11-1.599-0.855l-2.112,0.789l-0.936-2.051	c-0.302-0.662-1.117-0.909-1.736-0.526l-1.918,1.186l-1.318-1.829c-0.425-0.591-1.272-0.674-1.805-0.178l-1.649,1.537l-1.649-1.537	c-0.532-0.496-1.379-0.413-1.805,0.178l-1.318,1.829l-1.918-1.186c-0.619-0.383-1.433-0.136-1.736,0.526l-0.936,2.051l-2.112-0.789	c-0.682-0.255-1.432,0.147-1.599,0.855l-0.518,2.194l-2.225-0.362c-0.718-0.117-1.376,0.423-1.402,1.151l-0.079,2.253l-2.253,0.079	c-0.727,0.026-1.267,0.684-1.151,1.402l0.362,2.225l-2.194,0.518c-0.708,0.167-1.11,0.918-0.855,1.599l0.789,2.112l-2.051,0.936	c-0.662,0.302-0.909,1.117-0.526,1.736l1.186,1.918l-1.829,1.318c-0.591,0.425-0.674,1.272-0.178,1.805l1.537,1.649l-1.537,1.649	c-0.496,0.532-0.413,1.379,0.178,1.805l1.829,1.318l-1.186,1.918c-0.383,0.619-0.136,1.433,0.526,1.736l2.051,0.936l-0.789,2.112	c-0.255,0.682,0.147,1.432,0.855,1.599l2.194,0.518l-0.362,2.225c-0.117,0.718,0.423,1.376,1.151,1.402l2.253,0.079l0.079,2.253	c0.026,0.727,0.684,1.267,1.402,1.151l2.225-0.362l0.518,2.194c0.167,0.708,0.918,1.11,1.599,0.855l2.112-0.789l0.936,2.051	c0.302,0.662,1.117,0.909,1.736,0.526l1.918-1.186l1.318,1.829c0.425,0.591,1.272,0.674,1.805,0.178l1.649-1.537l1.649,1.537	c0.532,0.496,1.379,0.413,1.805-0.178l1.318-1.829l1.918,1.186c0.619,0.383,1.433,0.136,1.736-0.526l0.936-2.051l2.112,0.789	c0.682,0.255,1.432-0.147,1.599-0.855l0.518-2.194l2.225,0.362c0.718,0.117,1.376-0.423,1.402-1.151l0.079-2.253l2.253-0.079	c0.727-0.026,1.267-0.684,1.151-1.402l-0.362-2.225l2.194-0.518c0.708-0.167,1.11-0.918,0.855-1.599l-0.789-2.112l2.051-0.936	c0.662-0.302,0.909-1.117,0.526-1.736l-1.186-1.918l1.829-1.318c0.591-0.425,0.674-1.272,0.178-1.805L56.528,32.066z M32,10	c0.552,0,1,0.448,1,1s-0.448,1-1,1s-1-0.448-1-1S31.448,10,32,10z M12,25c0.552,0,1,0.448,1,1s-0.448,1-1,1s-1-0.448-1-1	S11.448,25,12,25z M12.201,39c-0.997-2.82-1.414-5.915-1.094-9.143c0.019-0.19,0.057-0.374,0.081-0.562l2.531-0.5	c1.049-0.207,1.731-1.225,1.523-2.274L14.744,24H18v15H12.201z M21,51c-0.552,0-1-0.448-1-1s0.448-1,1-1s1,0.448,1,1	S21.552,51,21,51z M43,51c-0.552,0-1-0.448-1-1s0.448-1,1-1s1,0.448,1,1S43.552,51,43,51z M46.207,47.42l-3.982-0.636	c-1.055-0.169-2.048,0.55-2.216,1.606l-0.516,3.23c-1.693,0.651-3.487,1.088-5.35,1.273c-3.432,0.34-6.714-0.153-9.675-1.292	l-0.513-3.211c-0.169-1.055-1.161-1.775-2.216-1.606l-3.984,0.636c-1.112-1.028-2.113-2.175-2.982-3.421H18h9h5v-5h-5v-5h6.166	c5.219,1.25,0.755,10,9.834,10h6.214C48.339,45.248,47.325,46.389,46.207,47.42z M27,29v-4h7c1.105,0,2,0.895,2,2s-0.895,2-2,2H27z M52.904,34H50v1.66c0,1.845-1.202,3.34-2.34,3.34c-5.109,0-1.061-7.438-9.66-7.968V31c10.468,0,10.101-12,1-12h-7h-5h-6h-3h-2.454	c3.068-3.868,7.452-6.657,12.45-7.621l2.702,2.702c0.756,0.756,1.981,0.756,2.737,0l2.674-2.674	c6.147,1.22,11.327,5.121,14.27,10.436l-1.688,3.848c-0.429,0.979,0.016,2.12,0.995,2.55l3.176,1.393	C53.02,31.052,53.041,32.511,52.904,34z M52,27c-0.552,0-1-0.448-1-1s0.448-1,1-1s1,0.448,1,1S52.552,27,52,27z"/></svg>